<svg width="272" height="283" viewBox="0 0 272 283" fill="none" xmlns="http://www.w3.org/2000/svg">
  <rect width="272" height="283" rx="52" fill="#0A0C10" />
  <g transform="translate(136 141.5) scale(0.7) translate(-136 -141.5)">
    <path d="M0 0H71C119.049 0 158 38.9512 158 87H0V0Z" fill="#F5F5F5"/>
    <path d="M0 108H26C74.6011 108 114 147.399 114 196H0V108Z" fill="#F5F5F5"/>
    <path d="M272 283L201 283C152.951 283 114 244.049 114 196L272 196L272 283Z" fill="#F5F5F5"/>
    <path d="M272 175L246 175C197.399 175 158 135.601 158 87L272 87L272 175Z" fill="#F5F5F5"/>
  </g>
</svg>